# xmcd
#
# Track frame offsets: 
#        150
#        18669
#        35300
#        48727
#        61645
#        78601
#        88087
#        101032
#        115102
#        120584
#        134403
#        146237
#        153871
#        166988
#        183124
#        202859
#        221386
#        238127
#        252076
#        264272
#        273911
#        286435
#        294359
#        308133
#
# Disc length: 4358 seconds
#
# Revision: 0
# Processed by: cddbd v1.5.2PL0 Copyright (c) Steve Scherf et al.
# Submitted via: ExactAudioCopy v0.99pb4
#
DISCID=53110418
DTITLE=Replacements - Simply Unacceptable
DYEAR=1985
DGENRE=Ambient
TTITLE0=Hear You Been to College
TTITLE1=Bastards of Young
TTITLE2=Gary's Got a Boner
TTITLE3=Color Me Impressed
TTITLE4=I'll Buy
TTITLE5=Tommy Gets His Tonsils Out
TTITLE6=Unsatisfied
TTITLE7=Punk Poop
TTITLE8=Jean Genie
TTITLE9=Can't Hardly Wait
TTITLE10=Dose of Thunder
TTITLE11=The Man Who Invented Himself
TTITLE12=I Wanna Destroy You
TTITLE13=I Will Dare
TTITLE14=Little Mascara
TTITLE15=Left of the Dial
TTITLE16=Take Me Down to the Hospital
TTITLE17=Takin' a Ride
TTITLE18=I'm in Trouble
TTITLE19=Rattlesnake
TTITLE20=Hitchin' a Ride
TTITLE21=Customer
TTITLE22=Kids Don't Follow
TTITLE23=Kansas City Star
EXTD=
EXTT0=
EXTT1=
EXTT2=
EXTT3=
EXTT4=
EXTT5=
EXTT6=
EXTT7=
EXTT8=
EXTT9=
EXTT10=
EXTT11=
EXTT12=
EXTT13=
EXTT14=
EXTT15=
EXTT16=
EXTT17=
EXTT18=
EXTT19=
EXTT20=
EXTT21=
EXTT22=
EXTT23=
PLAYORDER=
